<svg xmlns="http://www.w3.org/2000/svg" width="21" height="16" viewBox="0 0 21 16">
    <g fill="none" fill-rule="evenodd">
        <g fill="#58A728">
            <g>
                <g>
                    <path d="M386.054 81.122c0-.337-.129-.673-.362-.915l-1.76-1.83c-.232-.242-.556-.377-.88-.377-.323 0-.646.135-.88.377l-8.487 8.84-3.804-3.97c-.232-.241-.556-.376-.88-.376-.323 0-.646.135-.88.377l-1.759 1.83c-.233.242-.362.578-.362.915 0 .336.13.673.362.915l6.444 6.7c.232.243.556.378.88.378.323 0 .646-.135.88-.377l11.126-11.572c.233-.242.362-.579.362-.915z" transform="translate(-381 -1225) translate(15 811) translate(0 336)"/>
                </g>
            </g>
        </g>
    </g>
</svg>
